# Blender v2.90.1 OBJ File: 'improved_lilypad.blend'
# www.blender.org
mtllib water_lilypad.mtl
o lilypad.001_ID12
v 0.000000 -0.061563 0.156250
v 0.000000 -0.499063 0.375000
v 0.000000 -0.061563 0.375000
v 0.000000 -0.499063 0.156250
v 0.000000 -0.061563 -0.062500
v 0.000000 -0.499063 -0.062500
v 0.500000 -0.499063 0.500000
v -0.500000 -0.499063 -0.500000
v -0.500000 -0.499063 0.500000
v 0.500000 -0.499063 -0.500000
v -0.218750 -0.061563 0.156250
v 0.000000 -0.499063 0.156250
v -0.218750 -0.499063 0.156250
v 0.218750 -0.499063 0.156250
v 0.000000 -0.061563 0.156250
v 0.218750 -0.061563 0.156250
vt 0.217446 0.718750
vt 0.437500 0.500000
vt 0.437500 0.718750
vt 0.217446 0.500000
vt 0.000000 0.718750
vt 0.000000 0.500000
vt 0.000000 0.000000
vt 1.000000 0.500000
vt 1.000000 0.000000
vt 1.000000 0.718750
vt 0.780760 0.500000
vt 1.000000 0.500000
vt 0.562500 0.500000
vt 0.791833 0.718750
vt 0.562500 0.718750
vt 0.000131 0.499870
vn -1.0000 0.0000 0.0000
vn 0.0000 1.0000 0.0000
vn 0.0000 0.0000 -1.0000
usemtl material.002
s off
f 1/1/1 2/2/1 3/3/1
f 2/2/1 1/1/1 4/4/1
f 4/4/1 1/1/1 5/5/1
f 4/4/1 5/5/1 6/6/1
f 7/7/2 8/8/2 9/9/2
f 11/10/3 12/11/3 13/12/3
f 12/11/3 11/10/3 14/13/3
f 14/13/3 11/10/3 15/14/3
f 14/13/3 15/14/3 16/15/3
f 7/7/2 10/16/2 8/8/2
